Coordinates
version=1
nRows=29
nColumns=20
inDegrees=yes

Units are S.I. units (second, meters, Newtons, ...)
Angles are in degrees.

endheader
time	Th_rotX	Th_rotY	Th_rotZ	Th_transX	Th_transY	Th_transZ	Clav_rotZ_right	Clav_rotY_right	Clav_rotX_right	Scap_rotZ_right	Scap_rotY_right	Scap_rotX_right	Hum_rotZ_right	Hum_rotY_right	Hum_rotZZ_right	Elb_flex_right	Elb_ProSup_right	wrist_dev_r	wrist_flex_r
      0.75000000	     -3.55817020	     -2.16772684	      0.23176570	      0.50818897	      1.43578529	     -0.44371690	     14.61917132	      1.27484967	     48.34452527	    -21.31968876	    -28.64788565	     -3.83328324	      0.54318836	    -33.12238728	    -71.70258591	     19.57485533	     42.20877878	     31.17588349	     -0.35408519
      0.75333333	     -3.55862527	     -2.16737422	      0.23125546	      0.50822186	      1.43578704	     -0.44372942	     14.61912975	      1.27506890	     48.34491638	    -21.31957489	    -28.64788976	     -3.83337363	      0.54271508	    -33.12263655	    -71.70283683	     19.57527565	     42.20886434	     31.17590194	     -0.35405503
      0.75666667	     -3.55937485	     -2.16714519	      0.23046083	      0.50824498	      1.43579685	     -0.44373650	     14.61918491	      1.27561110	     48.34516239	    -21.31960313	    -28.64788976	     -3.83375550	      0.54220945	    -33.12315273	    -71.70313336	     19.57566009	     42.20894623	     31.17593347	     -0.35403394
      0.76000000	     -3.56019874	     -2.16686665	      0.22960107	      0.50826514	      1.43580055	     -0.44372932	     14.61915617	      1.27626502	     48.34539302	    -21.31979124	    -28.64788640	     -3.83426036	      0.54166691	    -33.12376302	    -71.70343197	     19.57604519	     42.20901629	     31.17595914	     -0.35401506
      0.76333333	     -3.56061982	     -2.16652672	      0.22884496	      0.50830851	      1.43580200	     -0.44374082	     14.61911906	      1.27655500	     48.34561666	    -21.31974121	    -28.64788976	     -3.83445654	      0.54127737	    -33.12410537	    -71.70369479	     19.57642641	     42.20910939	     31.17599143	     -0.35398784
      0.76666667	     -3.56161102	     -2.16648595	      0.22752173	      0.50832899	      1.43581355	     -0.44374135	     14.61929317	      1.27753155	     48.34553504	    -21.32002998	    -28.64788976	     -3.83532945	      0.54078276	    -33.12503910	    -71.70403958	     19.57675257	     42.20918173	     31.17603215	     -0.35397589
      0.77000000	     -3.56226987	     -2.16613153	      0.22651336	      0.50836670	      1.43580316	     -0.44373573	     14.61923571	      1.27810478	     48.34572606	    -21.32019993	    -28.64788976	     -3.83586969	      0.54025229	    -33.12565616	    -71.70434643	     19.57708087	     42.20923984	     31.17605290	     -0.35395848
      0.77333333	     -3.56301915	     -2.16578870	      0.22537194	      0.50839410	      1.43580655	     -0.44374454	     14.61919982	      1.27875978	     48.34587491	    -21.32037234	    -28.64788976	     -3.83635832	      0.53974598	    -33.12623067	    -71.70461040	     19.57752185	     42.20930333	     31.17607852	     -0.35393886
      0.77666667	     -3.56387482	     -2.16551539	      0.22407916	      0.50841877	      1.43581128	     -0.44374857	     14.61920343	      1.27956163	     48.34594784	    -21.32061948	    -28.64788976	     -3.83700444	      0.53921400	    -33.12696487	    -71.70489698	     19.57792098	     42.20936011	     31.17610831	     -0.35392434
      0.78000000	     -3.56439323	     -2.16483556	      0.22328095	      0.50846111	      1.43580609	     -0.44376114	     14.61891447	      1.27984997	     48.34644593	    -21.32057119	    -28.64781373	     -3.83699644	      0.53862813	    -33.12710523	    -71.70509318	     19.57847408	     42.20943122	     31.17612468	     -0.35389274
      0.78333333	     -3.56514403	     -2.16440110	      0.22205475	      0.50848124	      1.43581287	     -0.44376825	     14.61880294	      1.28045959	     48.34665493	    -21.32069541	    -28.64788976	     -3.83733290	      0.53808712	    -33.12755236	    -71.70533962	     19.57897485	     42.20951219	     31.17615182	     -0.35386518
      0.78666667	     -3.56628993	     -2.16405076	      0.22053661	      0.50849893	      1.43581877	     -0.44376195	     14.61872362	      1.28157331	     48.34673462	    -21.32114427	    -28.64786808	     -3.83820536	      0.53740009	    -33.12847746	    -71.70563214	     19.57944802	     42.20955025	     31.17617697	     -0.35385457
      0.79000000	     -3.56647164	     -2.16325568	      0.21974514	      0.50854303	      1.43580936	     -0.44379057	     14.61835287	      1.28153577	     48.34723386	    -21.32091717	    -28.64788976	     -3.83787249	      0.53691527	    -33.12830539	    -71.70576268	     19.58006913	     42.20963294	     31.17618850	     -0.35381217
      0.79333333	     -3.56795082	     -2.16287608	      0.21808699	      0.50854513	      1.43581462	     -0.44376884	     14.61821541	      1.28298404	     48.34739228	    -21.32161240	    -28.64768324	     -3.83897924	      0.53603658	    -33.12941039	    -71.70607779	     19.58061369	     42.20967854	     31.17620551	     -0.35379458
      0.79666667	     -3.56839009	     -2.16214858	      0.21694702	      0.50858062	      1.43580463	     -0.44378884	     14.61787638	      1.28329372	     48.34773795	    -21.32162559	    -28.64775692	     -3.83901682	      0.53550671	    -33.12957566	    -71.70624042	     19.58119919	     42.20972599	     31.17622487	     -0.35376950
      0.80000000	     -3.56946136	     -2.16162531	      0.21534328	      0.50859344	      1.43580718	     -0.44378730	     14.61765332	      1.28432158	     48.34788378	    -21.32207012	    -28.64774699	     -3.83972549	      0.53480121	    -33.13035059	    -71.70646491	     19.58178717	     42.20973966	     31.17624794	     -0.35376123
      0.80333333	     -3.57022537	     -2.16080830	      0.21410024	      0.50862746	      1.43580449	     -0.44379647	     14.61725458	      1.28489962	     48.34830244	    -21.32221179	    -28.64767348	     -3.83990555	      0.53410872	    -33.13065082	    -71.70662670	     19.58244187	     42.20976330	     31.17626198	     -0.35374073
      0.80666667	     -3.57108932	     -2.16002358	      0.21285910	      0.50865791	      1.43580848	     -0.44380779	     14.61684682	      1.28560776	     48.34877157	    -21.32242363	    -28.64752543	     -3.84013630	      0.53333390	    -33.13098884	    -71.70679673	     19.58313237	     42.20977796	     31.17627659	     -0.35372222
      0.81000000	     -3.57185900	     -2.15942558	      0.21127957	      0.50866652	      1.43579898	     -0.44380791	     14.61656896	      1.28634539	     48.34891771	    -21.32277477	    -28.64761335	     -3.84062911	      0.53271373	    -33.13154835	    -71.70699106	     19.58372572	     42.20980769	     31.17629432	     -0.35370266
      0.81333333	     -3.57262492	     -2.15864181	      0.20987950	      0.50869479	      1.43580398	     -0.44381857	     14.61612936	      1.28702670	     48.34924429	    -21.32304316	    -28.64761492	     -3.84087685	      0.53202477	    -33.13189080	    -71.70713192	     19.58442823	     42.20982042	     31.17630886	     -0.35368296
      0.81666667	     -3.57334996	     -2.15797270	      0.20838136	      0.50871972	      1.43580438	     -0.44383348	     14.61579313	      1.28771487	     48.34946414	    -21.32327610	    -28.64769595	     -3.84120225	      0.53136366	    -33.13235154	    -71.70727866	     19.58509656	     42.20982637	     31.17633020	     -0.35366903
      0.82000000	     -3.57396639	     -2.15701380	      0.20715167	      0.50875487	      1.43581122	     -0.44385077	     14.61526540	      1.28810854	     48.34997463	    -21.32331561	    -28.64766632	     -3.84107347	      0.53066540	    -33.13240603	    -71.70734485	     19.58590775	     42.20982901	     31.17634362	     -0.35364795
      0.82333333	     -3.57482664	     -2.15625896	      0.20554356	      0.50876162	      1.43581375	     -0.44385010	     14.61483093	      1.28886679	     48.35024343	    -21.32368270	    -28.64770251	     -3.84139825	      0.52998297	    -33.13280829	    -71.70746324	     19.58665379	     42.20983930	     31.17636896	     -0.35363148
      0.82666667	     -3.57543595	     -2.15518035	      0.20435128	      0.50879102	      1.43580606	     -0.44385640	     14.61418993	      1.28921783	     48.35085923	    -21.32381878	    -28.64757428	     -3.84124951	      0.52921682	    -33.13279129	    -71.70750296	     19.58754525	     42.20984668	     31.17636606	     -0.35359875
      0.83000000	     -3.57594657	     -2.15438442	      0.20276582	      0.50880540	      1.43580445	     -0.44386947	     14.61373717	      1.28965168	     48.35105493	    -21.32399717	    -28.64780355	     -3.84132473	      0.52868880	    -33.13297020	    -71.70757756	     19.58827996	     42.20985531	     31.17639071	     -0.35357956
      0.83333333	     -3.57685667	     -2.15355948	      0.20114073	      0.50881870	      1.43580574	     -0.44387008	     14.61324163	      1.29046948	     48.35137387	    -21.32439607	    -28.64777763	     -3.84166605	      0.52792933	    -33.13341611	    -71.70767134	     19.58909323	     42.20983173	     31.17641530	     -0.35357163
      0.83666667	     -3.57753107	     -2.15271024	      0.19957259	      0.50883111	      1.43579991	     -0.44388135	     14.61273152	      1.29104789	     48.35169006	    -21.32467959	    -28.64784706	     -3.84181360	      0.52726103	    -33.13367319	    -71.70773100	     19.58990530	     42.20980799	     31.17644285	     -0.35356238
      0.84000000	     -3.57797649	     -2.15170747	      0.19814130	      0.50885718	      1.43579443	     -0.44389913	     14.61213999	      1.29130633	     48.35208707	    -21.32472642	    -28.64788976	     -3.84162821	      0.52667478	    -33.13362959	    -71.70774578	     19.59074577	     42.20978915	     31.17647269	     -0.35354993
      0.84333333	     -3.57905226	     -2.15085205	      0.19640857	      0.50887024	      1.43580330	     -0.44390162	     14.61162891	      1.29223234	     48.35240879	    -21.32512556	    -28.64785469	     -3.84198790	      0.52588296	    -33.13404707	    -71.70784752	     19.59156890	     42.20974722	     31.17651425	     -0.35355401
